<svg width="40" height="40" viewBox="0 0 40 40" fill="none" xmlns="http://www.w3.org/2000/svg">
<path d="M35.9297 11.1953C35.4061 9.98298 34.6511 8.88436 33.707 7.96097C32.7622 7.03482 31.6483 6.29882 30.4258 5.793C29.1581 5.26641 27.7985 4.99687 26.4258 5.00003C24.5 5.00003 22.6211 5.52737 20.9883 6.52346C20.5977 6.76175 20.2266 7.02347 19.875 7.30862C19.5234 7.02347 19.1523 6.76175 18.7617 6.52346C17.1289 5.52737 15.25 5.00003 13.3242 5.00003C11.9375 5.00003 10.5938 5.26565 9.32422 5.793C8.09766 6.30081 6.99219 7.03128 6.04297 7.96097C5.09764 8.88332 4.34249 9.9822 3.82031 11.1953C3.27734 12.4571 3 13.7969 3 15.1758C3 16.4766 3.26563 17.8321 3.79297 19.211C4.23438 20.3633 4.86719 21.5586 5.67578 22.7657C6.95703 24.6758 8.71875 26.668 10.9062 28.6875C14.5312 32.0352 18.1211 34.3477 18.2734 34.4414L19.1992 35.0352C19.6094 35.2969 20.1367 35.2969 20.5469 35.0352L21.4727 34.4414C21.625 34.3438 25.2109 32.0352 28.8398 28.6875C31.0273 26.668 32.7891 24.6758 34.0703 22.7657C34.8789 21.5586 35.5156 20.3633 35.9531 19.211C36.4805 17.8321 36.7461 16.4766 36.7461 15.1758C36.75 13.7969 36.4727 12.4571 35.9297 11.1953Z" fill="#84D6D6"/>
</svg>
