<svg width="35" height="35" viewBox="0 0 35 35" fill="none" xmlns="http://www.w3.org/2000/svg">
<path d="M28.5015 1.15813C28.3581 1.0972 28.2002 1.07868 28.0465 1.10475C27.8929 1.13082 27.75 1.2004 27.6347 1.30524L17.5 10.5698L7.36477 1.30524C7.24949 1.20057 7.10666 1.13109 6.95315 1.10502C6.79964 1.07895 6.64188 1.09738 6.49852 1.15813C6.35638 1.21681 6.23473 1.31616 6.14883 1.4437C6.06292 1.57124 6.01659 1.72131 6.01562 1.87508V23.3591C6.01562 23.5756 6.10695 23.7813 6.26883 23.9295L16.952 33.6945C17.1017 33.8311 17.2973 33.9067 17.5 33.9061C17.6963 33.9061 17.8937 33.8355 18.048 33.6945L28.7312 23.9295C28.8925 23.7813 28.9844 23.5751 28.9844 23.3591V1.87508C28.9833 1.72134 28.9369 1.57134 28.851 1.44382C28.7651 1.31631 28.6435 1.21693 28.5015 1.15813ZM7.61797 23.0211V3.67813L16.952 12.211C16.9559 12.2148 16.9619 12.2159 16.9657 12.2198V31.5666L7.61797 23.0211ZM27.3815 23.0211L18.0343 31.566V12.2192C18.0387 12.2154 18.0441 12.2143 18.048 12.2105L27.3815 3.67813V23.0211Z" fill="#84D6D6"/>
</svg>
