<svg width="13" height="12" viewBox="0 0 13 12" fill="none" xmlns="http://www.w3.org/2000/svg">
<path d="M12.4083 2.33448C12.211 1.87765 11.9265 1.46367 11.5708 1.11573C11.2148 0.766742 10.795 0.48941 10.3344 0.29881C9.85668 0.100385 9.34435 -0.00118017 8.82711 1.03459e-05C8.10145 1.03459e-05 7.39346 0.19872 6.77819 0.574059C6.631 0.663846 6.49117 0.762465 6.3587 0.869915C6.22622 0.762465 6.08639 0.663846 5.9392 0.574059C5.32394 0.19872 4.61594 1.03459e-05 3.89029 1.03459e-05C3.36775 1.03459e-05 2.86141 0.100101 2.38304 0.29881C1.92086 0.49016 1.5043 0.765409 1.14663 1.11573C0.790416 1.46328 0.505867 1.87735 0.309103 2.33448C0.104506 2.80991 0 3.31477 0 3.83436C0 4.32451 0.100091 4.83527 0.2988 5.35486C0.465127 5.78907 0.703578 6.23948 1.00827 6.6943C1.49106 7.41407 2.15489 8.16475 2.97917 8.92574C4.34511 10.1872 5.6978 11.0585 5.75521 11.0939L6.10405 11.3176C6.25861 11.4162 6.45731 11.4162 6.61187 11.3176L6.96071 11.0939C7.01812 11.0571 8.36934 10.1872 9.73675 8.92574C10.561 8.16475 11.2249 7.41407 11.7077 6.6943C12.0123 6.23948 12.2523 5.78907 12.4171 5.35486C12.6158 4.83527 12.7159 4.32451 12.7159 3.83436C12.7174 3.31477 12.6129 2.80991 12.4083 2.33448ZM6.3587 10.1533C6.3587 10.1533 1.11866 6.79587 1.11866 3.83436C1.11866 2.33448 2.35949 1.11867 3.89029 1.11867C4.96626 1.11867 5.89946 1.71921 6.3587 2.59648C6.81794 1.71921 7.75113 1.11867 8.82711 1.11867C10.3579 1.11867 11.5987 2.33448 11.5987 3.83436C11.5987 6.79587 6.3587 10.1533 6.3587 10.1533Z" fill="white"/>
</svg>
