<svg width="16" height="16" viewBox="0 0 16 16" fill="none" xmlns="http://www.w3.org/2000/svg">
<path d="M7.665 1.82044C8.77643 1.82044 9.67706 2.72108 9.67706 3.8325C9.67706 4.94392 8.77643 5.84456 7.665 5.84456C6.55358 5.84456 5.65294 4.94392 5.65294 3.8325C5.65294 2.72108 6.55358 1.82044 7.665 1.82044ZM7.665 10.4436C10.5106 10.4436 13.5096 11.8424 13.5096 12.4556V13.5096H1.82044V12.4556C1.82044 11.8424 4.81937 10.4436 7.665 10.4436ZM7.665 0C5.54754 0 3.8325 1.71504 3.8325 3.8325C3.8325 5.94996 5.54754 7.665 7.665 7.665C9.78246 7.665 11.4975 5.94996 11.4975 3.8325C11.4975 1.71504 9.78246 0 7.665 0ZM7.665 8.62313C5.10681 8.62313 0 9.90701 0 12.4556V15.33H15.33V12.4556C15.33 9.90701 10.2232 8.62313 7.665 8.62313Z" fill="#599CC2"/>
</svg>
